<?xml version="1.0" encoding="iso-8859-1"?>
<!-- Uploaded to: SVG Repo, www.svgrepo.com, Generator: SVG Repo Mixer Tools -->
<svg height="800px" width="800px" version="1.1" id="Layer_1" xmlns="http://www.w3.org/2000/svg" xmlns:xlink="http://www.w3.org/1999/xlink" 
	 viewBox="0 0 512 512" xml:space="preserve">
<path style="fill:#FFAD61;" d="M431.733,60.61c0-17.057-13.827-30.885-30.885-30.885H111.152c-17.057,0-30.885,13.827-30.885,30.885
	v11.408h351.466V60.61z"/>
<path style="fill:#FFE6B8;" d="M80.268,72.018v398.899c0,17.056,13.827,30.884,30.884,30.884h289.696
	c17.057,0,30.885-13.828,30.885-30.885V72.018H80.268z"/>
<g>
	<path style="fill:#4D3D36;" d="M70.068,470.916c0,22.654,18.43,41.084,41.084,41.084h289.695c22.654,0,41.084-18.43,41.084-41.084
		V60.61c0-22.57-18.295-40.942-40.835-41.077v-9.333C401.097,4.567,396.53,0,390.898,0c-5.632,0-10.199,4.567-10.199,10.199v9.327
		h-24.811v-9.327C355.888,4.567,351.321,0,345.689,0c-5.632,0-10.199,4.567-10.199,10.199v9.327h-24.081v-9.327
		C311.409,4.567,306.842,0,301.21,0c-5.632,0-10.199,4.567-10.199,10.199v9.327H266.2v-9.327C266.2,4.567,261.633,0,256.001,0
		c-5.632,0-10.199,4.567-10.199,10.199v9.327h-24.811v-9.327C220.991,4.567,216.424,0,210.792,0s-10.199,4.567-10.199,10.199v9.327
		h-24.811v-9.327C175.782,4.567,171.215,0,165.583,0s-10.199,4.567-10.199,10.199v9.327h-24.081v-9.327
		C131.302,4.567,126.735,0,121.103,0s-10.199,4.567-10.199,10.199v9.333C88.364,19.668,70.069,38.04,70.069,60.61v410.306H70.068z
		 M90.466,60.61c0-11.322,9.146-20.537,20.436-20.673v3.481c0,5.632,4.567,10.199,10.199,10.199c5.632,0,10.199-4.567,10.199-10.199
		v-3.493h24.081v3.493c0,5.632,4.567,10.199,10.199,10.199s10.199-4.567,10.199-10.199v-3.493h24.811v3.493
		c0,5.632,4.567,10.199,10.199,10.199c5.632,0,10.199-4.567,10.199-10.199v-3.493h24.812v3.493c0,5.632,4.567,10.199,10.199,10.199
		c5.632,0,10.199-4.567,10.199-10.199v-3.493h24.811v3.493c0,5.632,4.567,10.199,10.199,10.199c5.632,0,10.199-4.567,10.199-10.199
		v-3.493h24.081v3.493c0,5.632,4.567,10.199,10.199,10.199c5.632,0,10.199-4.567,10.199-10.199v-3.493h24.811v3.493
		c0,5.632,4.567,10.199,10.199,10.199c5.632,0,10.199-4.567,10.199-10.199v-3.481c11.291,0.136,20.436,9.351,20.436,20.673v1.209
		H90.466V60.61z M421.535,470.916c0,11.407-9.28,20.686-20.686,20.686H111.152c-11.407,0-20.686-9.28-20.686-20.686v-388.7h331.068
		V470.916z"/>
	<path style="fill:#4D3D36;" d="M179.437,146.685h208.91c5.632,0,10.199-4.567,10.199-10.199s-4.567-10.199-10.199-10.199h-208.91
		c-5.632,0-10.199,4.567-10.199,10.199S173.804,146.685,179.437,146.685z"/>
	<path style="fill:#4D3D36;" d="M123.654,146.685h14.219c5.632,0,10.199-4.567,10.199-10.199s-4.567-10.199-10.199-10.199h-14.219
		c-5.632,0-10.199,4.567-10.199,10.199S118.022,146.685,123.654,146.685z"/>
	<path style="fill:#4D3D36;" d="M179.437,196.27h208.91c5.632,0,10.199-4.567,10.199-10.199c0-5.632-4.567-10.199-10.199-10.199
		h-208.91c-5.632,0-10.199,4.567-10.199,10.199C169.238,191.703,173.804,196.27,179.437,196.27z"/>
	<path style="fill:#4D3D36;" d="M123.654,196.27h14.219c5.632,0,10.199-4.567,10.199-10.199c0-5.632-4.567-10.199-10.199-10.199
		h-14.219c-5.632,0-10.199,4.567-10.199,10.199C113.454,191.703,118.022,196.27,123.654,196.27z"/>
	<path style="fill:#4D3D36;" d="M179.437,246.584h208.91c5.632,0,10.199-4.567,10.199-10.199s-4.567-10.199-10.199-10.199h-208.91
		c-5.632,0-10.199,4.567-10.199,10.199S173.804,246.584,179.437,246.584z"/>
	<path style="fill:#4D3D36;" d="M123.654,246.584h14.219c5.632,0,10.199-4.567,10.199-10.199s-4.567-10.199-10.199-10.199h-14.219
		c-5.632,0-10.199,4.567-10.199,10.199S118.022,246.584,123.654,246.584z"/>
	<path style="fill:#4D3D36;" d="M179.437,295.438h208.91c5.632,0,10.199-4.567,10.199-10.199c0-5.632-4.567-10.199-10.199-10.199
		h-208.91c-5.632,0-10.199,4.567-10.199,10.199C169.238,290.871,173.804,295.438,179.437,295.438z"/>
	<path style="fill:#4D3D36;" d="M123.654,295.438h14.219c5.632,0,10.199-4.567,10.199-10.199c0-5.632-4.567-10.199-10.199-10.199
		h-14.219c-5.632,0-10.199,4.567-10.199,10.199C113.454,290.871,118.022,295.438,123.654,295.438z"/>
	<path style="fill:#4D3D36;" d="M179.437,345.752h208.91c5.632,0,10.199-4.567,10.199-10.199c0-5.632-4.567-10.199-10.199-10.199
		h-208.91c-5.632,0-10.199,4.567-10.199,10.199C169.238,341.185,173.804,345.752,179.437,345.752z"/>
	<path style="fill:#4D3D36;" d="M123.654,345.752h14.219c5.632,0,10.199-4.567,10.199-10.199c0-5.632-4.567-10.199-10.199-10.199
		h-14.219c-5.632,0-10.199,4.567-10.199,10.199C113.454,341.185,118.022,345.752,123.654,345.752z"/>
	<path style="fill:#4D3D36;" d="M179.437,394.606h208.91c5.632,0,10.199-4.567,10.199-10.199c0-5.632-4.567-10.199-10.199-10.199
		h-208.91c-5.632,0-10.199,4.567-10.199,10.199C169.238,390.039,173.804,394.606,179.437,394.606z"/>
	<path style="fill:#4D3D36;" d="M123.654,394.606h14.219c5.632,0,10.199-4.567,10.199-10.199c0-5.632-4.567-10.199-10.199-10.199
		h-14.219c-5.632,0-10.199,4.567-10.199,10.199C113.454,390.039,118.022,394.606,123.654,394.606z"/>
	<path style="fill:#4D3D36;" d="M179.437,444.92h208.91c5.632,0,10.199-4.567,10.199-10.199c0-5.632-4.567-10.199-10.199-10.199
		h-208.91c-5.632,0-10.199,4.567-10.199,10.199C169.238,440.353,173.804,444.92,179.437,444.92z"/>
	<path style="fill:#4D3D36;" d="M123.654,444.92h14.219c5.632,0,10.199-4.567,10.199-10.199c0-5.632-4.567-10.199-10.199-10.199
		h-14.219c-5.632,0-10.199,4.567-10.199,10.199C113.454,440.353,118.022,444.92,123.654,444.92z"/>
</g>
</svg>